<svg width="40" height="40" viewBox="0 0 40 40" fill="none" xmlns="http://www.w3.org/2000/svg">
<g id="Building ">
<path id="Vector" d="M23.3333 13.3333H25C25.442 13.3333 25.866 13.1577 26.1785 12.8452C26.4911 12.5326 26.6667 12.1087 26.6667 11.6667C26.6667 11.2246 26.4911 10.8007 26.1785 10.4882C25.866 10.1756 25.442 10 25 10H23.3333C22.8913 10 22.4674 10.1756 22.1548 10.4882C21.8423 10.8007 21.6667 11.2246 21.6667 11.6667C21.6667 12.1087 21.8423 12.5326 22.1548 12.8452C22.4674 13.1577 22.8913 13.3333 23.3333 13.3333ZM23.3333 20H25C25.442 20 25.866 19.8244 26.1785 19.5119C26.4911 19.1993 26.6667 18.7754 26.6667 18.3333C26.6667 17.8913 26.4911 17.4674 26.1785 17.1548C25.866 16.8423 25.442 16.6667 25 16.6667H23.3333C22.8913 16.6667 22.4674 16.8423 22.1548 17.1548C21.8423 17.4674 21.6667 17.8913 21.6667 18.3333C21.6667 18.7754 21.8423 19.1993 22.1548 19.5119C22.4674 19.8244 22.8913 20 23.3333 20ZM15 13.3333H16.6667C17.1087 13.3333 17.5326 13.1577 17.8452 12.8452C18.1577 12.5326 18.3333 12.1087 18.3333 11.6667C18.3333 11.2246 18.1577 10.8007 17.8452 10.4882C17.5326 10.1756 17.1087 10 16.6667 10H15C14.558 10 14.1341 10.1756 13.8215 10.4882C13.5089 10.8007 13.3333 11.2246 13.3333 11.6667C13.3333 12.1087 13.5089 12.5326 13.8215 12.8452C14.1341 13.1577 14.558 13.3333 15 13.3333ZM15 20H16.6667C17.1087 20 17.5326 19.8244 17.8452 19.5119C18.1577 19.1993 18.3333 18.7754 18.3333 18.3333C18.3333 17.8913 18.1577 17.4674 17.8452 17.1548C17.5326 16.8423 17.1087 16.6667 16.6667 16.6667H15C14.558 16.6667 14.1341 16.8423 13.8215 17.1548C13.5089 17.4674 13.3333 17.8913 13.3333 18.3333C13.3333 18.7754 13.5089 19.1993 13.8215 19.5119C14.1341 19.8244 14.558 20 15 20ZM35 33.3333H33.3333V5.00001C33.3333 4.55798 33.1578 4.13406 32.8452 3.8215C32.5326 3.50894 32.1087 3.33334 31.6667 3.33334H8.33334C7.89132 3.33334 7.46739 3.50894 7.15483 3.8215C6.84227 4.13406 6.66668 4.55798 6.66668 5.00001V33.3333H5.00001C4.55798 33.3333 4.13406 33.5089 3.8215 33.8215C3.50894 34.1341 3.33334 34.558 3.33334 35C3.33334 35.442 3.50894 35.866 3.8215 36.1785C4.13406 36.4911 4.55798 36.6667 5.00001 36.6667H35C35.442 36.6667 35.866 36.4911 36.1785 36.1785C36.4911 35.866 36.6667 35.442 36.6667 35C36.6667 34.558 36.4911 34.1341 36.1785 33.8215C35.866 33.5089 35.442 33.3333 35 33.3333ZM21.6667 33.3333H18.3333V26.6667H21.6667V33.3333ZM30 33.3333H25V25C25 24.558 24.8244 24.1341 24.5119 23.8215C24.1993 23.5089 23.7754 23.3333 23.3333 23.3333H16.6667C16.2247 23.3333 15.8007 23.5089 15.4882 23.8215C15.1756 24.1341 15 24.558 15 25V33.3333H10V6.66668H30V33.3333Z" fill="#1A1A1A"/>
</g>
</svg>
